<?xml version="1.0" encoding="utf-8"?>
<!-- Generator: Adobe Illustrator 16.0.0, SVG Export Plug-In . SVG Version: 6.00 Build 0)  -->
<!DOCTYPE svg PUBLIC "-//W3C//DTD SVG 1.1//EN" "http://www.w3.org/Graphics/SVG/1.1/DTD/svg11.dtd">
<svg version="1.1" id="Layer_1" xmlns="http://www.w3.org/2000/svg" xmlns:xlink="http://www.w3.org/1999/xlink" x="0px" y="0px"
	 width="320px" height="200px" viewBox="0 0 320 200" enable-background="new 0 0 320 200" xml:space="preserve">
<g>
	<path fill="#FFFFFF" d="M260.381,71.875c0,2.604,0,5.208,0,7.812c-0.764,0.88-1.477,1.81-2.299,2.631
		c-38.584,38.6-77.174,77.192-115.774,115.774c-0.821,0.822-1.751,1.535-2.63,2.298c-0.651,0-1.302,0-1.953,0
		c-1.803-1.76-3.625-3.5-5.407-5.281c-22.406-22.396-44.807-44.798-67.204-67.203c-1.598-1.6-3.156-3.239-4.733-4.859
		c0-0.651,0-1.302,0-1.953c0.764-0.881,1.479-1.811,2.301-2.635c38.582-38.598,77.173-77.188,115.772-115.771
		c0.82-0.821,1.75-1.534,2.63-2.297c2.604,0,5.208,0,7.812,0c0.898,0.102,1.796,0.269,2.695,0.294
		c20.751,0.579,41.501,1.142,62.251,1.705c3.618,0.098,4.44,0.921,4.538,4.546c0.564,20.75,1.129,41.5,1.705,62.25
		C260.112,70.085,260.279,70.979,260.381,71.875z M169.925,97.828c1.399,2.104,2.821,4.111,4.105,6.202
		c2.026,3.299,3.512,3.809,7.091,2.245c2.495-1.089,3.325-3.192,1.963-5.539c-1.399-2.413-2.996-4.713-4.537-7.041
		c-0.633-0.954-1.35-1.851-2.148-2.938c1.219-1.139,2.367-2.106,3.391-3.193c1.998-2.122,1.822-3.92-0.508-6.246
		c-2.245-2.239-4.186-2.4-6.253-0.427c-1.21,1.156-2.323,2.414-3.079,3.207c-4.063-1.769-7.556-3.73-11.301-4.834
		c-9.903-2.917-19.396,5.589-18.018,15.829c0.574,4.27,2.287,8.095,4.201,11.88c0.275,0.546,0.374,1.622,0.046,1.962
		c-4.057,4.204-8.209,8.317-12.723,12.842c-1.615-3.329-3.256-6.279-4.499-9.388c-1.462-3.656-3.053-4.641-6.885-3.616
		c-2.322,0.621-3.441,2.437-2.786,4.746c0.442,1.558,0.91,3.145,1.645,4.576c1.796,3.5,3.753,6.916,5.775,10.601
		c-0.991,0.932-2.18,1.951-3.256,3.077c-1.937,2.029-1.808,3.945,0.317,6.113c2.419,2.471,4.221,2.698,6.375,0.625
		c1.162-1.118,2.127-2.438,2.939-3.383c3.375,2.008,6.119,3.9,9.08,5.351c7.517,3.679,14.985,2.385,19.765-3.188
		c4.372-5.096,4.326-10.842,2.158-16.701c-1.367-3.694-3.237-7.203-4.85-10.727C161.783,105.999,165.724,102.044,169.925,97.828z
		 M234.355,42.267c-0.049-8.775-7.132-15.842-15.888-15.852c-8.797-0.01-15.999,7.247-15.912,16.035
		c0.086,8.743,7.266,15.817,15.999,15.765C227.284,58.163,234.402,50.979,234.355,42.267z"/>
	<path fill-rule="evenodd" clip-rule="evenodd" fill="#FFFFFF" d="M151.014,117.215c1.069,2.565,2.505,5.226,3.289,8.066
		c1.482,5.37-2.372,8.979-7.637,7.158c-2.595-0.896-4.963-2.451-7.261-3.62C143.341,124.885,147.075,121.151,151.014,117.215z"/>
	<path fill-rule="evenodd" clip-rule="evenodd" fill="#FFFFFF" d="M162.429,90.963c-3.471,3.475-6.67,6.679-10.178,10.189
		c-0.72-2.422-1.828-4.824-2.085-7.315c-0.423-4.08,2.752-6.474,6.679-5.263C158.74,89.16,160.517,90.131,162.429,90.963z"/>
</g>
</svg>
