<?xml version="1.0" encoding="utf-8"?>
<!-- Generator: Adobe Illustrator 16.0.0, SVG Export Plug-In . SVG Version: 6.00 Build 0)  -->
<!DOCTYPE svg PUBLIC "-//W3C//DTD SVG 1.1//EN" "http://www.w3.org/Graphics/SVG/1.1/DTD/svg11.dtd">
<svg version="1.1" id="Layer_1" xmlns="http://www.w3.org/2000/svg" xmlns:xlink="http://www.w3.org/1999/xlink" x="0px" y="0px"
	 width="320px" height="200px" viewBox="0 0 320 200" enable-background="new 0 0 320 200" xml:space="preserve">
<g>
	<path fill-rule="evenodd" clip-rule="evenodd" fill="#FFFFFF" d="M67.484,155.953c1.208-3.686,3.233-6.617,7.171-7.8
		c5.172-1.554,10.66,1.254,12.358,6.336c1.746,5.221-0.93,10.874-6.009,12.696c-5.166,1.853-10.808-0.711-12.801-5.806
		c-0.204-0.522-0.478-1.019-0.719-1.526C67.484,158.553,67.484,157.253,67.484,155.953z"/>
	<path fill-rule="evenodd" clip-rule="evenodd" fill="#FFFFFF" d="M267.145,141.135c-0.231,0.521-0.487,1.031-0.689,1.562
		c-1.746,4.588-6.327,7.165-11.22,6.304c-4.66-0.82-8.122-4.943-8.188-9.751c-0.064-4.898,3.48-9.096,8.41-9.954
		c4.702-0.82,9.302,1.846,11.005,6.368c0.202,0.533,0.453,1.049,0.682,1.571C267.145,138.535,267.145,139.835,267.145,141.135z"/>
	<path fill-rule="evenodd" clip-rule="evenodd" fill="#FFFFFF" d="M212.969,24.601c0,21.008,0,41.771,0,62.733
		c-15.567,0-31.062,0-46.395,0c-1.262,8.732-2.488,17.245-3.738,25.897c0.505,0.089,1.171,0.204,1.935,0.336
		c0,1.038,0,2.051,0,3.204c-2.885,0-5.704,0-8.525,0c0.265-5.077,0.53-10.171,0.804-15.409c-1.184,0-1.984,0-3.171,0
		c0.215,5.152,0.429,10.241,0.648,15.472c-2.631,0-5.375,0-8.218,0c0-1.06,0-2.073,0-3.241c0.603-0.07,1.211-0.142,1.776-0.209
		c-1.205-8.633-2.406-17.228-3.625-25.958c-13.412,0-26.914,0-40.581,0c0-20.935,0-41.745,0-62.824c0.737,0,1.493,0,2.248,0
		c12.799,0,25.599-0.021,38.399,0.03c1.351,0.005,2.288-0.395,3.219-1.355c3.393-3.497,6.865-6.917,10.319-10.354
		c0.657-0.653,1.109-1.171,0.792-2.316c-0.614-2.221,0.338-4.121,2.262-5.32c1.677-1.043,3.623-0.961,5.292,0.223
		c1.826,1.294,2.391,3.136,1.904,5.5c-0.127,0.617,0.049,1.557,0.462,1.984c3.523,3.642,7.1,7.234,10.753,10.746
		c0.561,0.539,1.591,0.822,2.405,0.826c9.552,0.056,19.103,0.036,28.653,0.036C211.295,24.601,212.003,24.601,212.969,24.601z
		 M208.965,28.892c-33.824,0-67.488,0-101.163,0c0,18.215,0,36.25,0,54.387c12.212,0,24.316,0,36.365,0
		c0.492-1.434-0.316-1.947-1.342-2.444c-5.72-2.774-11.421-5.585-17.126-8.392c-0.974-0.479-1.93-0.992-3.023-1.555
		c0.92-1.852,1.764-3.55,2.64-5.316c4.722,2.318,9.291,4.36,13.657,6.769c3.371,1.859,6.693,2.954,10.508,1.779
		c1.12-0.346,1.947,0.082,2.647,1.055c0.896,1.243,1.948,2.375,3.048,3.69c1.062-1.233,2.069-2.249,2.892-3.395
		c0.879-1.225,1.979-1.788,3.457-1.737c5.467,0.188,10.486-1.257,15.149-4.083c1.16-0.703,2.432-1.224,3.655-1.823
		c2.023-0.99,4.049-1.976,6.192-3.021c0.888,1.711,1.675,3.228,2.526,4.866c-6.804,3.036-13.372,5.967-19.939,8.899
		c-2.917,1.302-2.958,1.385-2.394,4.692c14.052,0,28.111,0,42.251,0C208.965,65.103,208.965,47.063,208.965,28.892z M149.361,24.463
		c9.483,0,18.515,0,28.067,0c-3.421-3.374-6.522-6.397-9.577-9.468c-0.858-0.864-1.488-1.511-2.95-0.851
		c-0.908,0.411-2.235-0.138-3.377-0.204c-0.566-0.033-1.363-0.185-1.672,0.115C156.407,17.385,153.037,20.792,149.361,24.463z"/>
	<path fill-rule="evenodd" clip-rule="evenodd" fill="#FFFFFF" d="M187.645,172.986c5.533,0.053,10.07,4.643,9.981,10.098
		c-0.089,5.54-4.63,9.981-10.158,9.935c-5.517-0.046-10.041-4.631-9.976-10.112C177.558,177.384,182.111,172.935,187.645,172.986z"
		/>
	<path fill-rule="evenodd" clip-rule="evenodd" fill="#FFFFFF" d="M214.518,183.415c-5.512,0.047-10.081-4.444-10.127-9.956
		c-0.046-5.479,4.495-10.066,9.996-10.101c5.509-0.034,10.071,4.453,10.135,9.97C224.584,178.789,220.045,183.368,214.518,183.415z"
		/>
	<path fill-rule="evenodd" clip-rule="evenodd" fill="#FFFFFF" d="M90.883,172.983c0.038-5.496,4.62-10.026,10.106-9.99
		c5.503,0.038,10.022,4.627,9.966,10.119c-0.057,5.527-4.64,10.065-10.097,10.002C95.337,183.05,90.846,178.487,90.883,172.983z"/>
	<path fill-rule="evenodd" clip-rule="evenodd" fill="#FFFFFF" d="M247.249,158.622c-0.007,5.501-4.554,10.033-10.059,10.022
		c-5.502-0.01-10.032-4.56-10.014-10.055c0.018-5.521,4.548-10.043,10.047-10.032C242.705,148.569,247.256,153.14,247.249,158.622z"
		/>
	<path fill-rule="evenodd" clip-rule="evenodd" fill="#FFFFFF" d="M138.169,182.238c0.047,5.574-4.337,10.038-9.916,10.094
		c-5.565,0.057-10.057-4.352-10.101-9.911c-0.043-5.554,4.386-10.069,9.917-10.109C133.629,172.271,138.121,176.687,138.169,182.238
		z"/>
	<path fill-rule="evenodd" clip-rule="evenodd" fill="#FFFFFF" d="M157.972,195.011c-5.549,0.029-10.07-4.408-10.12-9.933
		c-0.049-5.496,4.457-10.039,9.986-10.068c5.546-0.03,10.058,4.399,10.12,9.935C168.02,190.434,163.507,194.98,157.972,195.011z"/>
	<path fill-rule="evenodd" clip-rule="evenodd" fill="#FFFFFF" d="M79.148,136.989c4.103,3.46,8.021,7.173,12.345,10.328
		c11.44,8.349,24.312,13.596,38.095,16.612c19.808,4.335,39.675,4.92,59.495,0.188c16.026-3.826,30.308-11.136,42.31-22.528
		c3.331-3.16,6.181-6.829,9.244-10.27c0.375-0.422,0.715-0.874,1.07-1.312c0.192,0.076,0.384,0.153,0.574,0.23
		c-0.358,0.975-0.503,2.114-1.107,2.898c-9.381,12.152-21.354,20.969-35.363,27.056c-17.868,7.765-36.629,9.705-55.884,8.324
		c-14.03-1.007-27.611-3.895-40.582-9.42c-10.984-4.678-20.958-10.893-29.273-19.56c-0.625-0.653-0.882-1.659-1.31-2.502
		C78.891,137.019,79.02,137.005,79.148,136.989z"/>
	<path fill-rule="evenodd" clip-rule="evenodd" fill="#FFFFFF" d="M136.126,143.053c5.106,0.025,9.3,4.252,9.245,9.315
		c-0.055,5.111-4.269,9.254-9.367,9.207c-5.123-0.045-9.269-4.233-9.235-9.328C126.803,147.149,130.998,143.026,136.126,143.053z"/>
	<path fill-rule="evenodd" clip-rule="evenodd" fill="#FFFFFF" d="M188.353,142.661c5.099,0.015,9.315,4.229,9.286,9.286
		c-0.03,5.084-4.25,9.258-9.343,9.238c-5.109-0.021-9.286-4.207-9.271-9.296C179.04,146.8,183.236,142.649,188.353,142.661z"/>
	<path fill-rule="evenodd" clip-rule="evenodd" fill="#FFFFFF" d="M152.845,154.771c0.036-5.104,4.287-9.302,9.338-9.221
		c5.115,0.082,9.23,4.292,9.178,9.393c-0.053,5.128-4.239,9.247-9.35,9.2C156.899,164.096,152.808,159.912,152.845,154.771z"/>
	<path fill-rule="evenodd" clip-rule="evenodd" fill="#FFFFFF" d="M229.295,134.55c-5.158,0.021-9.308-4.064-9.337-9.192
		c-0.03-5.135,4.079-9.282,9.222-9.311c5.124-0.028,9.311,4.083,9.36,9.196C238.589,130.317,234.407,134.527,229.295,134.55z"/>
	<path fill-rule="evenodd" clip-rule="evenodd" fill="#FFFFFF" d="M90.453,119.965c5.105-0.008,9.316,4.169,9.322,9.246
		c0.006,5.076-4.198,9.249-9.318,9.247c-5.136-0.001-9.307-4.145-9.306-9.243C81.153,124.113,85.316,119.972,90.453,119.965z"/>
	<path fill-rule="evenodd" clip-rule="evenodd" fill="#FFFFFF" d="M219.704,140.936c0.009,5.153-4.081,9.259-9.238,9.271
		c-5.164,0.012-9.26-4.064-9.271-9.229c-0.011-5.17,4.06-9.259,9.228-9.27C215.584,131.698,219.695,135.785,219.704,140.936z"/>
	<path fill-rule="evenodd" clip-rule="evenodd" fill="#FFFFFF" d="M111.47,134.443c5.154,0.034,9.223,4.167,9.179,9.323
		c-0.044,5.159-4.173,9.227-9.324,9.181c-5.156-0.043-9.209-4.162-9.18-9.327C102.174,138.478,106.308,134.41,111.47,134.443z"/>
	<path fill-rule="evenodd" clip-rule="evenodd" fill="#FFFFFF" d="M226.104,105.441c-0.404,1.4-0.545,2.957-1.257,4.18
		c-8.676,14.896-22.132,23.124-38.462,27.195c-11.598,2.892-23.374,3.099-35.226,2.118c-11.867-0.979-23.339-3.531-34.233-8.398
		c-9.479-4.237-17.925-9.955-24.671-17.951c-0.68-0.807-0.912-1.99-1-3.052c3.237,3.145,6.286,6.516,9.746,9.392
		c9.407,7.822,20.354,12.645,32.167,15.48c17.078,4.101,34.324,4.995,51.543,1.188c16.354-3.614,29.867-11.729,38.712-26.483
		c0.751-1.252,1.375-2.58,2.06-3.873C225.69,105.305,225.896,105.373,226.104,105.441z"/>
	<path fill-rule="evenodd" clip-rule="evenodd" fill="#FFFFFF" d="M155.378,72.177c-6.189,0.004-11.14-4.933-11.147-11.118
		c-0.007-6.164,4.972-11.168,11.119-11.174c6.113-0.007,11.171,5.039,11.178,11.147C166.538,67.177,161.539,72.172,155.378,72.177z"
		/>
	<path fill-rule="evenodd" clip-rule="evenodd" fill="#FFFFFF" d="M187.212,80.478c0-1.915,0-3.698,0-5.596
		c5.317,0,10.537,0,15.927,0c0,1.813,0,3.64,0,5.596C197.89,80.478,192.674,80.478,187.212,80.478z"/>
</g>
</svg>
