<?xml version="1.0" encoding="utf-8"?>
<!-- Generator: Adobe Illustrator 16.0.0, SVG Export Plug-In . SVG Version: 6.00 Build 0)  -->
<!DOCTYPE svg PUBLIC "-//W3C//DTD SVG 1.1//EN" "http://www.w3.org/Graphics/SVG/1.1/DTD/svg11.dtd">
<svg version="1.1" id="Layer_1" xmlns="http://www.w3.org/2000/svg" xmlns:xlink="http://www.w3.org/1999/xlink" x="0px" y="0px"
	 width="320px" height="200px" viewBox="0 0 320 200" enable-background="new 0 0 320 200" xml:space="preserve">
<g>
	<path fill-rule="evenodd" clip-rule="evenodd" fill="#FFFFFF" d="M60.389,36.924c1.191-2.4,2.047-5.057,3.649-7.142
		c2.505-3.26,6.222-4.487,10.307-4.516c1.481-0.011,2.962-0.001,4.717-0.001c0,2.224-0.096,4.34,0.019,6.444
		c0.288,5.252,2.789,9.154,7.658,11.192c4.716,1.974,9.167,1.125,13.028-2.229c2.793-2.427,4.055-5.627,4.14-9.292
		c0.045-1.938,0.008-3.878,0.008-5.966c24.849,0,49.612,0,74.648,0c0,2.08-0.098,4.196,0.019,6.3
		c0.289,5.253,2.792,9.154,7.662,11.189c4.717,1.971,9.167,1.122,13.027-2.235c2.792-2.428,4.052-5.629,4.136-9.294
		c0.045-1.938,0.009-3.878,0.009-5.799c11.336-2.047,18.551,4.498,18.622,13.502c0.126,15.803,0.035,31.607,0.032,47.41
		c0,0.248-0.051,0.496-0.09,0.85c-4.042,0-8.033,0-12.238,0c0-8.127,0-16.311,0-24.627c-45.703,0-91.192,0-136.824,0
		c-0.03,0.629-0.087,1.254-0.087,1.88c-0.004,27.397-0.004,54.795-0.003,82.191c0,2.764,0.092,2.855,2.827,2.855
		c23.058,0.001,46.115,0.001,69.173,0.001c0.774,0,1.548,0,2.473,0c0,4.108,0,8.146,0,12.438c-0.721,0-1.472,0-2.223,0
		c-23.187,0-46.375-0.112-69.561,0.062c-8.061,0.06-13.79-4.81-14.912-11.411c-0.02-0.113-0.142-0.208-0.216-0.311
		C60.389,112.585,60.389,74.754,60.389,36.924z"/>
	<path fill-rule="evenodd" clip-rule="evenodd" fill="#FFFFFF" d="M205.752,199.389c-4.756-1.158-9.742-1.749-14.226-3.576
		c-17.183-7.006-27.791-19.776-30.823-38.133c-3.008-18.213,2.825-33.696,16.691-45.78c11.289-9.837,24.702-13.607,39.548-11.369
		c15.832,2.387,27.744,10.781,35.881,24.515c3.405,5.747,5.364,12.018,6.184,18.646c0.086,0.692,0.253,1.374,0.382,2.062
		c0,2.591,0,5.183,0,7.773c-0.244,1.39-0.475,2.78-0.733,4.167c-3.407,18.295-13.722,31.114-30.904,38.12
		c-4.483,1.827-9.47,2.417-14.226,3.576C210.935,199.389,208.343,199.389,205.752,199.389z M246.944,149.68
		c0.034-20.52-16.783-37.353-37.312-37.347c-20.46,0.005-37.188,16.673-37.299,37.166c-0.112,20.495,16.663,37.373,37.217,37.445
		C230.059,187.018,246.911,170.223,246.944,149.68z"/>
	<path fill-rule="evenodd" clip-rule="evenodd" fill="#FFFFFF" d="M213.525,199.389c4.756-1.159,9.742-1.749,14.226-3.576
		c17.183-7.006,27.497-19.825,30.904-38.12c0.259-1.387,0.489-2.777,0.733-4.167c0,15.288,0,30.575,0,45.863
		C244.101,199.389,228.813,199.389,213.525,199.389z"/>
	<path fill-rule="evenodd" clip-rule="evenodd" fill="#FFFFFF" d="M93.037,0.389c3.637,1.552,4.812,4.351,4.718,8.207
		c-0.186,7.571-0.006,15.151-0.077,22.727c-0.043,4.603-4.362,7.591-8.465,5.918c-2.436-0.993-3.881-2.897-3.905-5.531
		c-0.077-8.417-0.062-16.835-0.015-25.252c0.017-3.121,2.058-4.833,4.635-6.069C90.964,0.389,92,0.389,93.037,0.389z"/>
	<path fill-rule="evenodd" clip-rule="evenodd" fill="#FFFFFF" d="M192.537,0.389c3.637,1.552,4.812,4.351,4.719,8.207
		c-0.186,7.571-0.007,15.151-0.078,22.727c-0.043,4.603-4.362,7.591-8.464,5.918c-2.437-0.993-3.882-2.897-3.906-5.531
		c-0.076-8.417-0.062-16.835-0.015-25.252c0.017-3.121,2.059-4.832,4.635-6.069C190.464,0.389,191.501,0.389,192.537,0.389z"/>
	<path fill-rule="evenodd" clip-rule="evenodd" fill="#FFFFFF" d="M85.362,75.095c8.25,0,16.38,0,24.644,0
		c0,8.208,0,16.385,0,24.679c-8.191,0-16.368,0-24.644,0C85.362,91.577,85.362,83.446,85.362,75.095z"/>
	<path fill-rule="evenodd" clip-rule="evenodd" fill="#FFFFFF" d="M122.664,99.752c0-8.273,0-16.404,0-24.637
		c8.217,0,16.348,0,24.633,0c0,8.145,0,16.322,0,24.637C139.169,99.752,130.992,99.752,122.664,99.752z"/>
	<path fill-rule="evenodd" clip-rule="evenodd" fill="#FFFFFF" d="M184.722,75.176c0,8.248,0,16.332,0,24.564
		c-8.217,0-16.394,0-24.702,0c0-8.146,0-16.322,0-24.564C168.264,75.176,176.485,75.176,184.722,75.176z"/>
	<path fill-rule="evenodd" clip-rule="evenodd" fill="#FFFFFF" d="M85.351,137.063c0-8.27,0-16.401,0-24.635
		c8.216,0,16.348,0,24.634,0c0,8.143,0,16.32,0,24.635C101.858,137.063,93.682,137.063,85.351,137.063z"/>
	<path fill-rule="evenodd" clip-rule="evenodd" fill="#FFFFFF" d="M147.313,137.115c-8.268,0-16.398,0-24.633,0
		c0-8.216,0-16.347,0-24.634c8.139,0,16.316,0,24.633,0C147.313,120.604,147.313,128.781,147.313,137.115z"/>
	<path fill-rule="evenodd" clip-rule="evenodd" fill="#FFFFFF" d="M209.639,149.644c6.396,0,12.479-0.06,18.561,0.021
		c4.509,0.06,7.447,4.266,5.894,8.334c-0.973,2.545-2.915,4.012-5.626,4.036c-8.413,0.076-16.828,0.083-25.241-0.001
		c-3.341-0.032-5.943-2.612-5.979-5.944c-0.09-8.413-0.087-16.828-0.008-25.241c0.033-3.5,2.888-6.122,6.278-6.07
		c3.312,0.051,6.027,2.645,6.085,6.07c0.093,5.5,0.032,11.003,0.036,16.504C209.639,148.048,209.639,148.743,209.639,149.644z"/>
</g>
</svg>
