<?xml version="1.0" encoding="utf-8"?>
<!-- Generator: Adobe Illustrator 16.0.0, SVG Export Plug-In . SVG Version: 6.00 Build 0)  -->
<!DOCTYPE svg PUBLIC "-//W3C//DTD SVG 1.1//EN" "http://www.w3.org/Graphics/SVG/1.1/DTD/svg11.dtd">
<svg version="1.1" id="Layer_1" xmlns="http://www.w3.org/2000/svg" xmlns:xlink="http://www.w3.org/1999/xlink" x="0px" y="0px"
	 width="320px" height="200px" viewBox="0 0 320 200" enable-background="new 0 0 320 200" xml:space="preserve">
<g>
	<path fill-rule="evenodd" clip-rule="evenodd" fill="#FFFFFF" d="M60.758,37.323c1.191-2.402,2.049-5.062,3.652-7.148
		c2.507-3.262,6.227-4.49,10.315-4.52c1.482-0.011,2.965-0.002,4.721-0.002c0,2.227-0.096,4.344,0.019,6.45
		c0.288,5.257,2.791,9.162,7.664,11.201c4.72,1.976,9.174,1.126,13.039-2.231c2.795-2.429,4.058-5.632,4.143-9.3
		c0.045-1.94,0.008-3.882,0.008-5.971c24.869,0,49.652,0,74.709,0c0,2.082-0.098,4.2,0.019,6.306
		c0.29,5.257,2.794,9.161,7.668,11.198c4.721,1.973,9.175,1.123,13.038-2.236c2.794-2.43,4.056-5.634,4.14-9.302
		c0.045-1.939,0.008-3.881,0.008-5.804c11.345-2.049,18.566,4.502,18.639,13.514c0.125,15.816,0.035,31.633,0.031,47.449
		c0,0.248-0.052,0.496-0.09,0.851c-4.046,0-8.04,0-12.248,0c0-8.134,0-16.325,0-24.647c-45.74,0-91.267,0-136.936,0
		c-0.03,0.629-0.087,1.255-0.087,1.882c-0.004,27.419-0.004,54.839-0.003,82.258c0,2.766,0.093,2.858,2.829,2.858
		c23.077,0.002,46.153,0.001,69.229,0.001c0.775,0,1.55,0,2.476,0c0,4.111,0,8.151,0,12.447c-0.721,0-1.473,0-2.224,0
		c-23.206,0-46.413-0.112-69.618,0.061c-8.068,0.062-13.802-4.812-14.925-11.42c-0.019-0.112-0.141-0.207-0.215-0.311
		C60.758,113.046,60.758,75.185,60.758,37.323z"/>
	<path fill-rule="evenodd" clip-rule="evenodd" fill="#FFFFFF" d="M206.24,199.92c-4.76-1.16-9.751-1.75-14.237-3.58
		c-17.196-7.011-27.813-19.791-30.849-38.163c-3.01-18.228,2.827-33.724,16.705-45.817c11.299-9.845,24.723-13.619,39.58-11.378
		c15.844,2.389,27.767,10.79,35.909,24.535c3.408,5.751,5.369,12.026,6.189,18.66c0.086,0.692,0.253,1.375,0.382,2.063
		c0,2.593,0,5.186,0,7.779c-0.243,1.391-0.475,2.783-0.733,4.17c-3.411,18.311-13.733,31.14-30.93,38.15
		c-4.487,1.83-9.478,2.42-14.237,3.58C211.426,199.92,208.833,199.92,206.24,199.92z M247.466,150.17
		c0.034-20.535-16.798-37.382-37.343-37.376c-20.477,0.004-37.218,16.686-37.329,37.196c-0.113,20.511,16.676,37.403,37.246,37.476
		C230.566,187.539,247.433,170.73,247.466,150.17z"/>
	<path fill-rule="evenodd" clip-rule="evenodd" fill="#FFFFFF" d="M93.433,0.758c3.64,1.553,4.816,4.355,4.722,8.213
		c-0.186,7.578-0.006,15.164-0.077,22.746c-0.043,4.606-4.366,7.597-8.472,5.923c-2.438-0.994-3.885-2.9-3.908-5.535
		c-0.077-8.423-0.062-16.849-0.016-25.272c0.017-3.124,2.06-4.836,4.639-6.074C91.358,0.758,92.396,0.758,93.433,0.758z"/>
	<path fill-rule="evenodd" clip-rule="evenodd" fill="#FFFFFF" d="M193.015,0.758c3.64,1.553,4.815,4.355,4.722,8.213
		c-0.186,7.578-0.006,15.164-0.078,22.746c-0.042,4.606-4.365,7.597-8.471,5.923c-2.438-0.994-3.885-2.9-3.909-5.535
		c-0.076-8.423-0.062-16.849-0.015-25.273c0.017-3.124,2.06-4.836,4.639-6.074C190.939,0.758,191.977,0.758,193.015,0.758z"/>
	<path fill-rule="evenodd" clip-rule="evenodd" fill="#FFFFFF" d="M85.752,75.525c8.256,0,16.394,0,24.664,0
		c0,8.215,0,16.398,0,24.698c-8.198,0-16.382,0-24.664,0C85.752,92.021,85.752,83.883,85.752,75.525z"/>
	<path fill-rule="evenodd" clip-rule="evenodd" fill="#FFFFFF" d="M123.084,100.203c0-8.28,0-16.417,0-24.657
		c8.225,0,16.362,0,24.653,0c0,8.152,0,16.335,0,24.657C139.603,100.203,131.419,100.203,123.084,100.203z"/>
	<path fill-rule="evenodd" clip-rule="evenodd" fill="#FFFFFF" d="M185.192,75.607c0,8.254,0,16.345,0,24.584
		c-8.223,0-16.407,0-24.723,0c0-8.152,0-16.335,0-24.584C168.721,75.607,176.949,75.607,185.192,75.607z"/>
	<path fill-rule="evenodd" clip-rule="evenodd" fill="#FFFFFF" d="M85.74,137.544c0-8.276,0-16.414,0-24.654
		c8.223,0,16.361,0,24.654,0c0,8.149,0,16.333,0,24.654C102.262,137.544,94.078,137.544,85.74,137.544z"/>
	<path fill-rule="evenodd" clip-rule="evenodd" fill="#FFFFFF" d="M147.753,137.596c-8.275,0-16.412,0-24.653,0
		c0-8.223,0-16.36,0-24.653c8.146,0,16.331,0,24.653,0C147.753,121.071,147.753,129.256,147.753,137.596z"/>
	<path fill-rule="evenodd" clip-rule="evenodd" fill="#FFFFFF" d="M210.13,150.135c6.4,0,12.489-0.06,18.575,0.021
		c4.513,0.06,7.453,4.269,5.898,8.341c-0.974,2.547-2.917,4.015-5.63,4.039c-8.421,0.076-16.843,0.083-25.263,0
		c-3.344-0.033-5.948-2.616-5.983-5.95c-0.09-8.42-0.086-16.843-0.008-25.263c0.033-3.502,2.891-6.126,6.283-6.074
		c3.314,0.051,6.033,2.646,6.091,6.075c0.093,5.504,0.032,11.012,0.036,16.518C210.131,148.538,210.13,149.233,210.13,150.135z"/>
</g>
</svg>
