<?xml version="1.0" encoding="utf-8"?>
<!-- Generator: Adobe Illustrator 16.0.0, SVG Export Plug-In . SVG Version: 6.00 Build 0)  -->
<!DOCTYPE svg PUBLIC "-//W3C//DTD SVG 1.1//EN" "http://www.w3.org/Graphics/SVG/1.1/DTD/svg11.dtd">
<svg version="1.1" xmlns="http://www.w3.org/2000/svg" xmlns:xlink="http://www.w3.org/1999/xlink" x="0px" y="0px"
	 width="623.969px" height="250px" viewBox="0 0 623.969 250" enable-background="new 0 0 623.969 250" xml:space="preserve">
<g id="Layer_1">
</g>
<g id="Layer_3">
</g>
<g id="Layer_2">
	<g>
		<path fill-rule="evenodd" clip-rule="evenodd" fill="#FFFFFF" stroke="#FFFFFF" stroke-width="3" stroke-miterlimit="10" d="
			M159.557,57.868c0.029,3.718,0.078,7.436,0.082,11.154c0.02,20.038-0.021,40.076,0.071,60.114
			c0.029,6.157,0.018,12.315,0.081,18.473c0.003,0.338-0.18,0.817,0.192,0.983c0.468,0.209,0.842-0.188,1.096-0.531
			c0.521-0.704,0.97-1.462,1.468-2.184c25.609-37.147,51.229-74.286,76.812-111.451c1.626-2.363,3.604-3.312,6.492-3.061
			c3.337,0.291,6.713,0.208,10.066-0.018c2.743-0.185,3.769,0.706,3.769,3.45c0.001,6.717-0.015,13.435,0.014,20.153
			c0.005,1.213-0.312,2.269-0.978,3.262c-11.715,17.501-23.426,35.005-35.136,52.509c-9.555,14.283-19.106,28.569-28.664,42.851
			c-8.49,12.687-16.986,25.369-25.485,38.051c-0.332,0.495-0.712,0.959-1.07,1.437c-0.345-0.481-0.837-0.673-1.395-0.841
			c-1.164-0.35-2.284,0.121-3.436,0.07c-3.545-0.158-7.096-0.084-10.646-0.178c-6.586-0.175-13.18-0.06-19.771-0.065
			c-0.027-4.678-0.062-9.355-0.081-14.033c-0.062-15.515-0.121-31.03-0.179-46.545c-0.035-9.317-0.053-18.635-0.11-27.952
			c-0.011-1.743-0.043-3.497-0.475-5.208c0.149-0.185,0.323-0.355,0.442-0.558c3.805-6.469,8.233-12.53,12.317-18.818
			C149.681,71.778,154.333,64.625,159.557,57.868z"/>
		<path fill-rule="evenodd" clip-rule="evenodd" fill="#FFFFFF" stroke="#FFFFFF" stroke-width="3" stroke-miterlimit="10" d="
			M51.425,218.494c-4.434,0.059-8.869,0.118-13.303,0.174c-0.839,0.011-1.681,0.046-2.517-0.006
			c-1.441-0.09-2.099-0.715-2.286-2.128c-0.063-0.474-0.057-0.957-0.057-1.436c-0.002-51.551-0.003-103.102,0.007-154.652
			c0-0.875,0.131-1.749,0.201-2.623c8.75,0.005,17.499,0.01,26.249,0.014c0.016,0.519,0.045,1.038,0.045,1.556
			c0.002,30.909,0.002,61.818,0.002,92.727c0,0.459,0,0.918,0,1.408c0.457-0.094,0.519-0.401,0.663-0.614
			c8.696-12.782,17.379-25.573,26.08-38.354c3.235-4.752,6.511-9.477,9.768-14.214c0.077,9.065,0.172,18.129,0.224,27.194
			c0.043,7.672,0.036,15.345,0.05,23.017c-0.123,0.245-0.223,0.505-0.372,0.732c-8.628,13.144-17.262,26.282-25.884,39.43
			c-0.287,0.438-0.83,0.799-0.609,1.46c-0.481,0.09-0.694,0.477-0.959,0.828c-4.769,6.338-9.199,12.91-13.552,19.536
			C53.886,214.503,52.438,216.362,51.425,218.494z"/>
		<path fill-rule="evenodd" clip-rule="evenodd" fill="none" stroke="#FFFFFF" stroke-width="3" stroke-miterlimit="10" d="
			M59.718,57.838c-8.75-0.004-17.499-0.009-26.249-0.014c-0.036-2.396-0.101-4.793-0.101-7.19
			c-0.002-5.073-0.123-10.143-0.329-15.211c-0.02-0.479-0.022-0.961,0.019-1.438c0.141-1.636,0.846-2.359,2.468-2.546
			c1.794-0.206,3.59-0.019,5.385-0.018c31.384,0.012,62.767,0.018,94.151,0.001c6.593-0.003,13.186-0.102,19.778-0.149
			c0.558-0.004,1.12,0.02,1.673,0.083c2.486,0.287,3.436,1.144,3.326,3.622c-0.336,7.629-0.147,15.261-0.283,22.891
			c-5.224,6.757-9.875,13.91-14.521,21.064c-4.083,6.288-8.512,12.349-12.317,18.818c-0.119,0.203-0.293,0.373-0.442,0.558
			c-0.215,0.286-0.443,0.564-0.645,0.859c-9.722,14.281-19.438,28.567-29.166,42.844c-1.951,2.863-3.943,5.698-5.916,8.547
			c-0.015-7.672-0.007-15.345-0.05-23.017c-0.051-9.065-0.147-18.129-0.224-27.194c1.65-3.192,3.54-6.244,5.445-9.287
			c5.725-9.141,12.096-17.851,17.946-26.909c1.417-2.195,2.79-4.419,4.267-6.763c-0.676,0-1.115,0-1.553,0
			c-17.077,0-34.154,0.003-51.231-0.005c-1.597-0.001-3.198-0.153-4.791-0.088C64.141,57.386,61.89,57.167,59.718,57.838z"/>
		<path fill-rule="evenodd" clip-rule="evenodd" fill="none" stroke="#FFFFFF" stroke-width="3" stroke-miterlimit="10" d="
			M51.425,218.494c1.013-2.132,2.461-3.991,3.748-5.949c4.353-6.626,8.783-13.198,13.552-19.536
			c0.265-0.352,0.478-0.738,0.959-0.828c0.44-0.009,0.879-0.027,1.319-0.027c20.19-0.004,40.381-0.006,60.571-0.014
			c0.515,0,1.03-0.062,1.545-0.094c6.591,0.006,13.185-0.109,19.771,0.065c3.55,0.094,7.101,0.02,10.646,0.178
			c1.151,0.051,2.272-0.42,3.436-0.07c0.558,0.168,1.05,0.359,1.395,0.841c-3.672,5.562-7.344,11.125-11.016,16.688
			c-1.518,2.299-3.07,4.576-4.545,6.901c-0.923,1.456-2.145,2.084-3.885,2.08c-23.227-0.056-46.454-0.068-69.681-0.101
			c-8.793-0.013-17.587-0.048-26.381-0.076C52.38,218.551,51.903,218.514,51.425,218.494z"/>
	</g>
</g>
<g id="Layer_4">
	<g>
		<path fill="none" stroke="#FFFFFF" stroke-width="3" stroke-miterlimit="10" d="M294.226,143.961l-14.308-50.388h-0.431
			c0.67,8.582,1.005,15.249,1.005,20.002v30.386h-16.748V74.001h25.17l14.595,49.67h0.383l14.308-49.67h25.218v69.959h-17.37
			v-30.673c0-1.595,0.024-3.365,0.072-5.312c0.048-1.945,0.263-6.715,0.646-14.308h-0.431l-14.116,50.292H294.226z"/>
		<path fill="none" stroke="#FFFFFF" stroke-width="3" stroke-miterlimit="10" d="M417.97,74.001v42.109
			c0,9.156-2.592,16.246-7.776,21.27c-5.185,5.024-12.657,7.537-22.418,7.537c-9.539,0-16.868-2.441-21.988-7.322
			s-7.68-11.898-7.68-21.054v-42.54h18.997v41.057c0,4.945,0.925,8.534,2.775,10.767c1.85,2.234,4.577,3.349,8.183,3.349
			c3.859,0,6.659-1.107,8.398-3.325c1.738-2.217,2.608-5.845,2.608-10.886V74.001H417.97z"/>
		<path fill="none" stroke="#FFFFFF" stroke-width="3" stroke-miterlimit="10" d="M478.407,122.714
			c0,4.338-1.101,8.191-3.302,11.556c-2.201,3.366-5.376,5.981-9.522,7.848c-4.147,1.866-9.013,2.8-14.595,2.8
			c-4.658,0-8.565-0.328-11.724-0.982c-3.158-0.652-6.444-1.793-9.857-3.42v-16.844c3.604,1.851,7.353,3.294,11.245,4.331
			c3.892,1.037,7.465,1.555,10.719,1.555c2.807,0,4.864-0.485,6.173-1.459c1.308-0.973,1.962-2.225,1.962-3.756
			c0-0.957-0.263-1.794-0.79-2.512s-1.372-1.443-2.536-2.177c-1.165-0.733-4.267-2.232-9.307-4.498
			c-4.562-2.073-7.984-4.083-10.264-6.029c-2.281-1.945-3.972-4.179-5.072-6.699c-1.101-2.52-1.651-5.503-1.651-8.948
			c0-6.443,2.345-11.468,7.034-15.073c4.689-3.604,11.133-5.407,19.332-5.407c7.241,0,14.626,1.675,22.155,5.024l-5.79,14.595
			c-6.54-2.998-12.187-4.498-16.939-4.498c-2.457,0-4.243,0.431-5.359,1.292c-1.117,0.861-1.675,1.931-1.675,3.206
			c0,1.372,0.709,2.601,2.129,3.685c1.419,1.085,5.271,3.062,11.556,5.934c6.029,2.712,10.217,5.623,12.561,8.733
			C477.235,114.077,478.407,117.994,478.407,122.714z"/>
		<path fill="none" stroke="#FFFFFF" stroke-width="3" stroke-miterlimit="10" d="M489.221,143.961V74.001h18.998v69.959H489.221z"
			/>
		<path fill="none" stroke="#FFFFFF" stroke-width="3" stroke-miterlimit="10" d="M554.49,88.5c-4.498,0-8.008,1.842-10.527,5.527
			s-3.779,8.765-3.779,15.241c0,13.463,5.119,20.193,15.359,20.193c3.094,0,6.094-0.43,8.996-1.291s5.822-1.898,8.758-3.111v15.982
			c-5.838,2.584-12.441,3.877-19.811,3.877c-10.561,0-18.654-3.062-24.285-9.188s-8.445-14.978-8.445-26.558
			c0-7.241,1.363-13.605,4.092-19.093c2.727-5.486,6.65-9.706,11.771-12.657c5.119-2.95,11.141-4.426,18.062-4.426
			c7.561,0,14.787,1.644,21.678,4.929l-5.791,14.882c-2.584-1.212-5.168-2.232-7.752-3.062C560.232,88.916,557.457,88.5,554.49,88.5
			z"/>
	</g>
</g>
<g id="Layer_5">
	<g>
		<path fill="#FFFFFF" d="M220.014,176.124c-3.626,0-6.456,1.485-8.487,4.456c-2.032,2.969-3.047,7.064-3.047,12.285
			c0,10.853,4.127,16.278,12.382,16.278c2.494,0,4.912-0.347,7.252-1.042c2.34-0.693,4.693-1.529,7.06-2.507v12.884
			c-4.706,2.083-10.029,3.125-15.97,3.125c-8.512,0-15.038-2.469-19.576-7.406c-4.54-4.938-6.809-12.074-6.809-21.409
			c0-5.837,1.1-10.968,3.298-15.392c2.199-4.422,5.362-7.823,9.489-10.203c4.128-2.377,8.981-3.567,14.562-3.567
			c6.094,0,11.919,1.325,17.474,3.974l-4.667,11.996c-2.084-0.977-4.166-1.8-6.25-2.469
			C224.643,176.459,222.404,176.124,220.014,176.124z"/>
		<path fill="#FFFFFF" d="M294.115,164.436v33.945c0,7.381-2.09,13.096-6.269,17.146c-4.18,4.051-10.203,6.076-18.072,6.076
			c-7.689,0-13.598-1.968-17.725-5.902c-4.128-3.935-6.191-9.592-6.191-16.973v-34.293h15.313v33.098
			c0,3.986,0.746,6.879,2.238,8.679c1.49,1.8,3.689,2.7,6.596,2.7c3.111,0,5.368-0.893,6.77-2.682
			c1.401-1.786,2.103-4.711,2.103-8.775v-33.02H294.115z"/>
		<path fill="#FFFFFF" d="M342.834,203.705c0,3.497-0.888,6.603-2.661,9.314c-1.775,2.715-4.334,4.822-7.677,6.326
			c-3.344,1.506-7.266,2.258-11.765,2.258c-3.756,0-6.905-0.265-9.451-0.791c-2.546-0.527-5.195-1.447-7.946-2.758v-13.578
			c2.905,1.491,5.927,2.655,9.065,3.49c3.137,0.836,6.018,1.254,8.641,1.254c2.262,0,3.921-0.392,4.976-1.176
			c1.054-0.785,1.581-1.795,1.581-3.029c0-0.771-0.212-1.445-0.636-2.025c-0.425-0.578-1.106-1.162-2.045-1.754
			s-3.439-1.801-7.503-3.627c-3.678-1.671-6.436-3.291-8.273-4.859c-1.839-1.568-3.202-3.369-4.089-5.4
			c-0.888-2.031-1.331-4.437-1.331-7.214c0-5.194,1.891-9.245,5.67-12.151c3.781-2.905,8.975-4.358,15.584-4.358
			c5.838,0,11.791,1.351,17.86,4.05l-4.667,11.766c-5.272-2.417-9.824-3.626-13.656-3.626c-1.98,0-3.42,0.347-4.32,1.042
			c-0.9,0.693-1.35,1.556-1.35,2.584c0,1.105,0.572,2.096,1.717,2.971c1.144,0.874,4.249,2.469,9.315,4.783
			c4.86,2.186,8.235,4.531,10.126,7.039C341.889,196.742,342.834,199.898,342.834,203.705z"/>
		<path fill="#FFFFFF" d="M376.432,220.832h-15.236v-43.937h-13.771v-12.46h42.74v12.46h-13.732V220.832z"/>
		<path fill="#FFFFFF" d="M450.996,192.557c0,9.489-2.328,16.703-6.981,21.641c-4.655,4.938-11.471,7.406-20.445,7.406
			c-8.847,0-15.629-2.482-20.348-7.445s-7.078-12.189-7.078-21.679c0-9.386,2.347-16.554,7.04-21.505
			c4.692-4.95,11.515-7.426,20.464-7.426c8.974,0,15.776,2.456,20.405,7.367C448.682,175.828,450.996,183.042,450.996,192.557z
			 M412.19,192.557c0,10.904,3.793,16.355,11.379,16.355c3.857,0,6.719-1.324,8.583-3.973s2.797-6.776,2.797-12.383
			c0-5.632-0.945-9.791-2.835-12.479c-1.891-2.688-4.713-4.031-8.467-4.031C416.009,176.047,412.19,181.551,412.19,192.557z"/>
		<path fill="#FFFFFF" d="M485.751,220.832l-11.533-40.619h-0.348c0.541,6.918,0.811,12.293,0.811,16.124v24.495H461.18v-56.396
			h20.29l11.766,40.041h0.309l11.533-40.041h20.328v56.396h-14.002v-24.727c0-1.285,0.02-2.713,0.058-4.281
			c0.039-1.568,0.212-5.414,0.521-11.534h-0.347l-11.38,40.542H485.751z"/>
		<path fill="#FFFFFF" d="M574.434,203.705c0,3.497-0.888,6.603-2.661,9.314c-1.775,2.715-4.334,4.822-7.677,6.326
			c-3.344,1.506-7.266,2.258-11.765,2.258c-3.756,0-6.905-0.265-9.451-0.791c-2.546-0.527-5.195-1.447-7.946-2.758v-13.578
			c2.905,1.491,5.927,2.655,9.065,3.49c3.137,0.836,6.018,1.254,8.641,1.254c2.262,0,3.921-0.392,4.976-1.176
			c1.054-0.785,1.581-1.795,1.581-3.029c0-0.771-0.212-1.445-0.636-2.025c-0.425-0.578-1.106-1.162-2.045-1.754
			s-3.439-1.801-7.503-3.627c-3.678-1.671-6.436-3.291-8.273-4.859c-1.839-1.568-3.202-3.369-4.089-5.4
			c-0.888-2.031-1.331-4.437-1.331-7.214c0-5.194,1.891-9.245,5.67-12.151c3.781-2.905,8.975-4.358,15.584-4.358
			c5.838,0,11.791,1.351,17.86,4.05l-4.667,11.766c-5.272-2.417-9.824-3.626-13.656-3.626c-1.98,0-3.42,0.347-4.32,1.042
			c-0.9,0.693-1.35,1.556-1.35,2.584c0,1.105,0.572,2.096,1.717,2.971c1.144,0.874,4.249,2.469,9.315,4.783
			c4.86,2.186,8.235,4.531,10.126,7.039C573.488,196.742,574.434,199.898,574.434,203.705z"/>
	</g>
</g>
</svg>
